<svg width="18" height="18" viewBox="0 0 18 18" fill="none" xmlns="http://www.w3.org/2000/svg">
<g clip-path="url(#clip0_203_713)">
<path d="M14.9999 2.24991H2.99994C1.34994 2.24991 -6.10352e-05 3.59991 -6.10352e-05 5.24991V12.7499C-6.10352e-05 14.3999 1.34994 15.7499 2.99994 15.7499H14.9999C16.6499 15.7499 17.9999 14.3999 17.9999 12.7499V5.24991C17.9999 3.59991 16.6499 2.24991 14.9999 2.24991ZM16.1999 6.59991L10.2749 10.5749C9.89994 10.7999 9.44994 10.9499 8.99994 10.9499C8.54994 10.9499 8.09994 10.7999 7.72494 10.5749L1.79994 6.59991C1.49994 6.37491 1.42494 5.92491 1.64994 5.54991C1.87494 5.24991 2.32494 5.17491 2.69994 5.39991L8.62494 9.37491C8.84994 9.52491 9.22494 9.52491 9.44994 9.37491L15.3749 5.39991C15.7499 5.17491 16.1999 5.24991 16.4249 5.62491C16.5749 5.92491 16.4999 6.37491 16.1999 6.59991Z" fill="#F2F2F2"/>
</g>
<defs>
<clipPath id="clip0_203_713">
<rect width="18" height="18" fill="white"/>
</clipPath>
</defs>
</svg>
