<svg width="24" height="25" viewBox="0 0 24 25" fill="none" xmlns="http://www.w3.org/2000/svg">
<path d="M5 7.5H19C19.6 7.5 20 7.1 20 6.5C20 5.9 19.6 5.5 19 5.5H5C4.4 5.5 4 5.9 4 6.5C4 7.1 4.4 7.5 5 7.5Z" fill="#F2F2F2"/>
<path d="M5 13.5H19C19.6 13.5 20 13.1 20 12.5C20 11.9 19.6 11.5 19 11.5H5C4.4 11.5 4 11.9 4 12.5C4 13.1 4.4 13.5 5 13.5Z" fill="#F2F2F2"/>
<path d="M5 19.5H19C19.6 19.5 20 19.1 20 18.5C20 17.9 19.6 17.5 19 17.5H5C4.4 17.5 4 17.9 4 18.5C4 19.1 4.4 19.5 5 19.5Z" fill="#F2F2F2"/>
</svg>
