<svg width="18" height="18" viewBox="0 0 18 18" fill="none" xmlns="http://www.w3.org/2000/svg">
<path d="M15 8.24876H16.5C16.5 4.40126 13.5952 1.49951 9.74249 1.49951V2.99951C12.789 2.99951 15 5.20676 15 8.24876Z" fill="#F2F2F2"/>
<path d="M9.75003 5.99969C11.3273 5.99969 12 6.67244 12 8.24969H13.5C13.5 5.83094 12.1688 4.49969 9.75003 4.49969V5.99969ZM12.3165 10.0819C12.1724 9.95095 11.983 9.8811 11.7884 9.88711C11.5937 9.89313 11.409 9.97455 11.2733 10.1142L9.47853 11.9599C9.04653 11.8774 8.17803 11.6067 7.28403 10.7149C6.39003 9.82019 6.11928 8.94944 6.03903 8.52044L7.88328 6.72494C8.02309 6.58929 8.10463 6.40456 8.11065 6.20985C8.11667 6.01513 8.04669 5.82572 7.91553 5.68169L5.14428 2.63444C5.01306 2.48996 4.83069 2.40232 4.63589 2.39014C4.4411 2.37795 4.24923 2.44218 4.10103 2.56919L2.47353 3.96494C2.34386 4.09508 2.26647 4.26828 2.25603 4.45169C2.24478 4.63919 2.03028 9.08069 5.47428 12.5262C8.47878 15.5299 12.2423 15.7497 13.2788 15.7497C13.4303 15.7497 13.5233 15.7452 13.548 15.7437C13.7314 15.7334 13.9045 15.6557 14.034 15.5254L15.429 13.8972C15.5561 13.7491 15.6205 13.5573 15.6084 13.3625C15.5964 13.1677 15.5089 12.9853 15.3645 12.8539L12.3165 10.0819Z" fill="#F2F2F2"/>
</svg>
