<svg width="140" height="40" viewBox="0 0 140 40" fill="none" xmlns="http://www.w3.org/2000/svg">
<g filter="url(#filter0_d_1054_2168)">
<rect x="2" y="1" width="136" height="36" rx="8" fill="white"/>
<rect x="2.5" y="1.5" width="135" height="35" rx="7.5" stroke="#D0D5DD"/>
<path d="M22.5376 16.6172C22.4912 16.183 22.2957 15.8449 21.951 15.603C21.6096 15.361 21.1655 15.2401 20.6186 15.2401C20.2341 15.2401 19.9044 15.2981 19.6293 15.4141C19.3542 15.5301 19.1437 15.6875 18.9979 15.8864C18.852 16.0852 18.7775 16.3123 18.7741 16.5675C18.7741 16.7796 18.8222 16.9635 18.9183 17.1193C19.0178 17.2751 19.152 17.4077 19.321 17.517C19.4901 17.6231 19.6773 17.7126 19.8828 17.7855C20.0883 17.8584 20.2955 17.9197 20.5043 17.9695L21.4588 18.2081C21.8433 18.2976 22.2128 18.4186 22.5675 18.571C22.9254 18.7235 23.2453 18.9157 23.527 19.1477C23.812 19.3797 24.0374 19.6598 24.2031 19.9879C24.3688 20.3161 24.4517 20.7005 24.4517 21.1413C24.4517 21.7379 24.2992 22.2633 23.9943 22.7173C23.6894 23.1681 23.2486 23.5211 22.6719 23.7763C22.0985 24.0282 21.4041 24.1541 20.5888 24.1541C19.7966 24.1541 19.1089 24.0315 18.5256 23.7862C17.9455 23.541 17.4915 23.183 17.1634 22.7124C16.8385 22.2417 16.6629 21.6683 16.6364 20.9922H18.451C18.4775 21.3468 18.5869 21.6418 18.7791 21.8771C18.9714 22.1125 19.2216 22.2881 19.5298 22.4041C19.8414 22.5201 20.1894 22.5781 20.5739 22.5781C20.9749 22.5781 21.3262 22.5185 21.6278 22.3991C21.9328 22.2765 22.1714 22.1075 22.3438 21.892C22.5161 21.6733 22.6039 21.4181 22.6072 21.1264C22.6039 20.8613 22.526 20.6425 22.3736 20.4702C22.2211 20.2945 22.0073 20.1487 21.7322 20.0327C21.4605 19.9134 21.1423 19.8073 20.7777 19.7145L19.6193 19.4162C18.7808 19.2008 18.1179 18.8743 17.6307 18.4368C17.1468 17.996 16.9048 17.411 16.9048 16.6818C16.9048 16.0819 17.0672 15.5566 17.392 15.1058C17.7202 14.6551 18.166 14.3054 18.7294 14.0568C19.2929 13.8049 19.9309 13.679 20.6435 13.679C21.366 13.679 21.9991 13.8049 22.5426 14.0568C23.0895 14.3054 23.5187 14.6518 23.8303 15.0959C24.1418 15.5367 24.3026 16.0438 24.3125 16.6172H22.5376ZM29.3972 24.1491C28.6316 24.1491 27.9703 23.9901 27.4135 23.6719C26.86 23.3504 26.4341 22.8963 26.1358 22.3097C25.8375 21.7197 25.6884 21.0253 25.6884 20.2266C25.6884 19.4411 25.8375 18.7517 26.1358 18.1584C26.4374 17.5618 26.8584 17.0978 27.3986 16.7663C27.9389 16.4316 28.5736 16.2642 29.3027 16.2642C29.7734 16.2642 30.2175 16.3404 30.6351 16.4929C31.056 16.642 31.4273 16.8741 31.7488 17.1889C32.0736 17.5038 32.3288 17.9048 32.5144 18.392C32.7 18.8759 32.7928 19.4527 32.7928 20.1222V20.674H26.5336V19.4609H31.0676C31.0643 19.1162 30.9898 18.8097 30.8439 18.5412C30.6981 18.2694 30.4943 18.0556 30.2324 17.8999C29.9739 17.7441 29.6723 17.6662 29.3276 17.6662C28.9597 17.6662 28.6365 17.7557 28.3581 17.9347C28.0797 18.1103 27.8626 18.3423 27.7069 18.6307C27.5544 18.9157 27.4765 19.2289 27.4732 19.5703V20.6293C27.4732 21.0734 27.5544 21.4545 27.7168 21.7727C27.8792 22.0876 28.1062 22.3295 28.3979 22.4986C28.6896 22.6643 29.031 22.7472 29.4221 22.7472C29.6839 22.7472 29.9209 22.7107 30.133 22.6378C30.3451 22.5616 30.5291 22.4505 30.6848 22.3047C30.8406 22.1589 30.9583 21.9782 31.0378 21.7628L32.7182 21.9517C32.6122 22.3958 32.41 22.7836 32.1117 23.1151C31.8167 23.4432 31.4389 23.6984 30.9782 23.8807C30.5175 24.0597 29.9905 24.1491 29.3972 24.1491ZM36.1151 13.8182V24H34.3153V13.8182H36.1151ZM40.1632 24.1541C39.6793 24.1541 39.2434 24.0679 38.8556 23.8956C38.4712 23.7199 38.1663 23.4614 37.9409 23.12C37.7188 22.7786 37.6078 22.3577 37.6078 21.8572C37.6078 21.4264 37.6873 21.0701 37.8464 20.7884C38.0055 20.5066 38.2226 20.2812 38.4977 20.1122C38.7728 19.9432 39.0827 19.8156 39.4274 19.7294C39.7754 19.6399 40.135 19.5753 40.5062 19.5355C40.9537 19.4891 41.3166 19.4477 41.595 19.4112C41.8734 19.3714 42.0756 19.3118 42.2015 19.2322C42.3308 19.1494 42.3954 19.0218 42.3954 18.8494V18.8196C42.3954 18.4451 42.2844 18.1551 42.0623 17.9496C41.8403 17.7441 41.5204 17.6413 41.1028 17.6413C40.662 17.6413 40.3123 17.7375 40.0538 17.9297C39.7986 18.1219 39.6262 18.349 39.5368 18.6108L37.8564 18.3722C37.9889 17.9081 38.2077 17.5204 38.5126 17.2088C38.8175 16.8939 39.1904 16.6586 39.6312 16.5028C40.072 16.3438 40.5592 16.2642 41.0929 16.2642C41.4608 16.2642 41.827 16.3073 42.1916 16.3935C42.5562 16.4796 42.8893 16.6222 43.1909 16.821C43.4925 17.0166 43.7344 17.2834 43.9167 17.6214C44.1023 17.9595 44.1951 18.3821 44.1951 18.8892V24H42.465V22.951H42.4054C42.296 23.1631 42.1419 23.362 41.943 23.5476C41.7475 23.7299 41.5005 23.8774 41.2022 23.9901C40.9073 24.0994 40.5609 24.1541 40.1632 24.1541ZM40.6305 22.8317C40.9918 22.8317 41.305 22.7604 41.5701 22.6179C41.8353 22.4721 42.0391 22.2798 42.1816 22.0412C42.3275 21.8026 42.4004 21.5424 42.4004 21.2607V20.3608C42.344 20.4072 42.2479 20.4503 42.112 20.4901C41.9795 20.5298 41.8303 20.5646 41.6646 20.5945C41.4989 20.6243 41.3348 20.6508 41.1724 20.674C41.01 20.6972 40.8691 20.7171 40.7498 20.7337C40.4814 20.7701 40.2411 20.8298 40.0289 20.9126C39.8168 20.9955 39.6494 21.1115 39.5268 21.2607C39.4042 21.4065 39.3429 21.5954 39.3429 21.8274C39.3429 22.1589 39.4638 22.4091 39.7058 22.5781C39.9477 22.7472 40.256 22.8317 40.6305 22.8317ZM47.8045 19.5256V24H46.0048V16.3636H47.725V17.6612H47.8145C47.9901 17.2337 48.2702 16.8939 48.6547 16.642C49.0424 16.3902 49.5214 16.2642 50.0914 16.2642C50.6184 16.2642 51.0775 16.3769 51.4686 16.6023C51.863 16.8277 52.1679 17.1541 52.3833 17.5817C52.6021 18.0092 52.7098 18.5279 52.7065 19.1378V24H50.9068V19.4162C50.9068 18.9058 50.7742 18.5064 50.5091 18.218C50.2472 17.9297 49.8843 17.7855 49.4203 17.7855C49.1054 17.7855 48.8253 17.8551 48.5801 17.9943C48.3381 18.1302 48.1475 18.3274 48.0083 18.5859C47.8725 18.8445 47.8045 19.1577 47.8045 19.5256ZM54.536 16.3636H56.3358V24.4375C56.3358 24.9877 56.2314 25.4418 56.0225 25.7997C55.8137 26.1577 55.5121 26.4245 55.1177 26.6001C54.7233 26.7758 54.2444 26.8636 53.6809 26.8636C53.6146 26.8636 53.5533 26.862 53.497 26.8587C53.4406 26.8587 53.3793 26.857 53.313 26.8537V25.3871C53.3627 25.3904 53.4075 25.392 53.4473 25.392C53.487 25.3954 53.5285 25.397 53.5716 25.397C53.9163 25.397 54.1632 25.3125 54.3123 25.1435C54.4615 24.9777 54.536 24.7341 54.536 24.4126V16.3636ZM55.4309 15.2798C55.1426 15.2798 54.8957 15.1854 54.6902 14.9964C54.488 14.8042 54.3869 14.5739 54.3869 14.3054C54.3869 14.0336 54.488 13.8033 54.6902 13.6143C54.8957 13.4221 55.1426 13.326 55.4309 13.326C55.716 13.326 55.9596 13.4221 56.1618 13.6143C56.3672 13.8033 56.47 14.0336 56.47 14.3054C56.47 14.5739 56.3672 14.8042 56.1618 14.9964C55.9596 15.1854 55.716 15.2798 55.4309 15.2798ZM63.0536 20.7884V16.3636H64.8533V24H63.1083V22.6428H63.0288C62.8564 23.0703 62.573 23.42 62.1786 23.6918C61.7875 23.9635 61.3053 24.0994 60.7319 24.0994C60.2314 24.0994 59.7889 23.9884 59.4045 23.7663C59.0233 23.541 58.725 23.2145 58.5096 22.7869C58.2942 22.3561 58.1864 21.8357 58.1864 21.2259V16.3636H59.9862V20.9474C59.9862 21.4313 60.1187 21.8158 60.3839 22.1009C60.649 22.3859 60.997 22.5284 61.4279 22.5284C61.6931 22.5284 61.9499 22.4638 62.1985 22.3345C62.4471 22.2053 62.6509 22.013 62.81 21.7578C62.9724 21.4993 63.0536 21.1761 63.0536 20.7884ZM70.5172 16.3636V17.7557H66.1273V16.3636H70.5172ZM67.2111 14.5341H69.0108V21.7031C69.0108 21.9451 69.0473 22.1307 69.1202 22.2599C69.1964 22.3859 69.2959 22.4721 69.4185 22.5185C69.5411 22.5649 69.677 22.5881 69.8262 22.5881C69.9389 22.5881 70.0416 22.5798 70.1344 22.5632C70.2305 22.5466 70.3034 22.5317 70.3532 22.5185L70.6564 23.9254C70.5603 23.9586 70.4228 23.995 70.2438 24.0348C70.0681 24.0746 69.8527 24.0978 69.5975 24.1044C69.1467 24.1177 68.7407 24.0497 68.3794 23.9006C68.0182 23.7481 67.7315 23.5128 67.5194 23.1946C67.3105 22.8764 67.2078 22.4787 67.2111 22.0014V14.5341ZM73.8221 19.5256V24H72.0224V16.3636H73.7425V17.6612H73.832C74.0077 17.2337 74.2878 16.8939 74.6722 16.642C75.06 16.3902 75.5389 16.2642 76.109 16.2642C76.636 16.2642 77.0951 16.3769 77.4862 16.6023C77.8806 16.8277 78.1855 17.1541 78.4009 17.5817C78.6197 18.0092 78.7274 18.5279 78.7241 19.1378V24H76.9244V19.4162C76.9244 18.9058 76.7918 18.5064 76.5266 18.218C76.2648 17.9297 75.9019 17.7855 75.4379 17.7855C75.123 17.7855 74.8429 17.8551 74.5977 17.9943C74.3557 18.1302 74.1651 18.3274 74.0259 18.5859C73.89 18.8445 73.8221 19.1577 73.8221 19.5256ZM81.3988 26.8636C81.1535 26.8636 80.9265 26.8438 80.7177 26.804C80.5122 26.7675 80.3481 26.7244 80.2255 26.6747L80.6431 25.2727C80.9049 25.349 81.1386 25.3854 81.3441 25.3821C81.5496 25.3788 81.7302 25.3142 81.886 25.1882C82.0451 25.0656 82.1793 24.8601 82.2887 24.5717L82.4428 24.1591L79.6737 16.3636H81.5827L83.3427 22.1307H83.4222L85.1871 16.3636H87.1012L84.0437 24.9247C83.9012 25.3291 83.7122 25.6754 83.4769 25.9638C83.2416 26.2554 82.9532 26.4775 82.6119 26.63C82.2738 26.7857 81.8694 26.8636 81.3988 26.8636ZM90.3253 24.1541C89.8414 24.1541 89.4055 24.0679 89.0178 23.8956C88.6333 23.7199 88.3284 23.4614 88.103 23.12C87.8809 22.7786 87.7699 22.3577 87.7699 21.8572C87.7699 21.4264 87.8494 21.0701 88.0085 20.7884C88.1676 20.5066 88.3847 20.2812 88.6598 20.1122C88.9349 19.9432 89.2448 19.8156 89.5895 19.7294C89.9375 19.6399 90.2971 19.5753 90.6683 19.5355C91.1158 19.4891 91.4787 19.4477 91.7571 19.4112C92.0355 19.3714 92.2377 19.3118 92.3636 19.2322C92.4929 19.1494 92.5575 19.0218 92.5575 18.8494V18.8196C92.5575 18.4451 92.4465 18.1551 92.2244 17.9496C92.0024 17.7441 91.6825 17.6413 91.2649 17.6413C90.8241 17.6413 90.4744 17.7375 90.2159 17.9297C89.9607 18.1219 89.7884 18.349 89.6989 18.6108L88.0185 18.3722C88.151 17.9081 88.3698 17.5204 88.6747 17.2088C88.9796 16.8939 89.3525 16.6586 89.7933 16.5028C90.2341 16.3438 90.7214 16.2642 91.255 16.2642C91.6229 16.2642 91.9891 16.3073 92.3537 16.3935C92.7183 16.4796 93.0514 16.6222 93.353 16.821C93.6546 17.0166 93.8965 17.2834 94.0788 17.6214C94.2644 17.9595 94.3572 18.3821 94.3572 18.8892V24H92.6271V22.951H92.5675C92.4581 23.1631 92.304 23.362 92.1051 23.5476C91.9096 23.7299 91.6626 23.8774 91.3643 23.9901C91.0694 24.0994 90.723 24.1541 90.3253 24.1541ZM90.7926 22.8317C91.1539 22.8317 91.4671 22.7604 91.7322 22.6179C91.9974 22.4721 92.2012 22.2798 92.3438 22.0412C92.4896 21.8026 92.5625 21.5424 92.5625 21.2607V20.3608C92.5062 20.4072 92.41 20.4503 92.2741 20.4901C92.1416 20.5298 91.9924 20.5646 91.8267 20.5945C91.661 20.6243 91.4969 20.6508 91.3345 20.674C91.1721 20.6972 91.0313 20.7171 90.9119 20.7337C90.6435 20.7701 90.4032 20.8298 90.1911 20.9126C89.9789 20.9955 89.8116 21.1115 89.6889 21.2607C89.5663 21.4065 89.505 21.5954 89.505 21.8274C89.505 22.1589 89.6259 22.4091 89.8679 22.5781C90.1098 22.7472 90.4181 22.8317 90.7926 22.8317Z" fill="#344054"/>
<path d="M108.167 19H119.833M119.833 19L114 13.1667M119.833 19L114 24.8334" stroke="#344054" stroke-width="1.67" stroke-linecap="round" stroke-linejoin="round"/>
</g>
<defs>
<filter id="filter0_d_1054_2168" x="0" y="0" width="140" height="40" filterUnits="userSpaceOnUse" color-interpolation-filters="sRGB">
<feFlood flood-opacity="0" result="BackgroundImageFix"/>
<feColorMatrix in="SourceAlpha" type="matrix" values="0 0 0 0 0 0 0 0 0 0 0 0 0 0 0 0 0 0 127 0" result="hardAlpha"/>
<feOffset dy="1"/>
<feGaussianBlur stdDeviation="1"/>
<feColorMatrix type="matrix" values="0 0 0 0 0.0627451 0 0 0 0 0.0941176 0 0 0 0 0.156863 0 0 0 0.05 0"/>
<feBlend mode="normal" in2="BackgroundImageFix" result="effect1_dropShadow_1054_2168"/>
<feBlend mode="normal" in="SourceGraphic" in2="effect1_dropShadow_1054_2168" result="shape"/>
</filter>
</defs>
</svg>
