<svg width="202" height="50" viewBox="0 0 202 50" fill="none" xmlns="http://www.w3.org/2000/svg">
<path d="M28.6997 32.216C27.8477 32.216 27.0677 32.06 26.3597 31.748C25.6517 31.424 25.0517 30.986 24.5597 30.434C24.0677 29.882 23.7137 29.264 23.4977 28.58L25.0277 27.95C25.3517 28.814 25.8317 29.48 26.4677 29.948C27.1157 30.404 27.8717 30.632 28.7357 30.632C29.2637 30.632 29.7257 30.548 30.1217 30.38C30.5177 30.212 30.8237 29.978 31.0397 29.678C31.2677 29.366 31.3817 29.006 31.3817 28.598C31.3817 28.034 31.2197 27.59 30.8957 27.266C30.5837 26.93 30.1217 26.678 29.5097 26.51L27.0437 25.754C26.0717 25.454 25.3277 24.98 24.8117 24.332C24.2957 23.684 24.0377 22.94 24.0377 22.1C24.0377 21.368 24.2117 20.726 24.5597 20.174C24.9197 19.61 25.4117 19.172 26.0357 18.86C26.6717 18.536 27.3917 18.374 28.1957 18.374C28.9997 18.374 29.7257 18.518 30.3737 18.806C31.0337 19.094 31.5917 19.484 32.0477 19.976C32.5037 20.456 32.8397 21.008 33.0557 21.632L31.5437 22.262C31.2557 21.506 30.8237 20.936 30.2477 20.552C29.6717 20.156 28.9937 19.958 28.2137 19.958C27.7337 19.958 27.3077 20.042 26.9357 20.21C26.5757 20.366 26.2937 20.6 26.0897 20.912C25.8977 21.212 25.8017 21.572 25.8017 21.992C25.8017 22.484 25.9577 22.922 26.2697 23.306C26.5817 23.69 27.0557 23.984 27.6917 24.188L29.9417 24.854C30.9977 25.178 31.7957 25.64 32.3357 26.24C32.8757 26.84 33.1457 27.584 33.1457 28.472C33.1457 29.204 32.9537 29.852 32.5697 30.416C32.1977 30.98 31.6757 31.424 31.0037 31.748C30.3437 32.06 29.5757 32.216 28.6997 32.216ZM39.9944 32.216C39.0584 32.216 38.2244 31.994 37.4924 31.55C36.7604 31.106 36.1844 30.5 35.7644 29.732C35.3444 28.952 35.1344 28.082 35.1344 27.122C35.1344 26.15 35.3384 25.286 35.7464 24.53C36.1664 23.774 36.7304 23.18 37.4384 22.748C38.1584 22.304 38.9624 22.082 39.8504 22.082C40.5704 22.082 41.2064 22.214 41.7584 22.478C42.3224 22.73 42.7964 23.078 43.1804 23.522C43.5764 23.954 43.8764 24.452 44.0804 25.016C44.2964 25.568 44.4044 26.144 44.4044 26.744C44.4044 26.876 44.3924 27.026 44.3684 27.194C44.3564 27.35 44.3384 27.5 44.3144 27.644H36.3584V26.204H43.3424L42.5504 26.852C42.6584 26.228 42.5984 25.67 42.3704 25.178C42.1424 24.686 41.8064 24.296 41.3624 24.008C40.9184 23.72 40.4144 23.576 39.8504 23.576C39.2864 23.576 38.7704 23.72 38.3024 24.008C37.8344 24.296 37.4684 24.71 37.2044 25.25C36.9524 25.778 36.8504 26.408 36.8984 27.14C36.8504 27.848 36.9584 28.472 37.2224 29.012C37.4984 29.54 37.8824 29.954 38.3744 30.254C38.8784 30.542 39.4244 30.686 40.0124 30.686C40.6604 30.686 41.2064 30.536 41.6504 30.236C42.0944 29.936 42.4544 29.552 42.7304 29.084L44.1344 29.804C43.9424 30.248 43.6424 30.656 43.2344 31.028C42.8384 31.388 42.3644 31.676 41.8124 31.892C41.2724 32.108 40.6664 32.216 39.9944 32.216ZM46.587 32V18.374H48.261V32H46.587ZM55.3225 32.216C54.3865 32.216 53.5525 31.994 52.8205 31.55C52.0885 31.106 51.5125 30.5 51.0925 29.732C50.6725 28.952 50.4625 28.082 50.4625 27.122C50.4625 26.15 50.6665 25.286 51.0745 24.53C51.4945 23.774 52.0585 23.18 52.7665 22.748C53.4865 22.304 54.2905 22.082 55.1785 22.082C55.8985 22.082 56.5345 22.214 57.0865 22.478C57.6505 22.73 58.1245 23.078 58.5085 23.522C58.9045 23.954 59.2045 24.452 59.4085 25.016C59.6245 25.568 59.7325 26.144 59.7325 26.744C59.7325 26.876 59.7205 27.026 59.6965 27.194C59.6845 27.35 59.6665 27.5 59.6425 27.644H51.6865V26.204H58.6705L57.8785 26.852C57.9865 26.228 57.9265 25.67 57.6985 25.178C57.4705 24.686 57.1345 24.296 56.6905 24.008C56.2465 23.72 55.7425 23.576 55.1785 23.576C54.6145 23.576 54.0985 23.72 53.6305 24.008C53.1625 24.296 52.7965 24.71 52.5325 25.25C52.2805 25.778 52.1785 26.408 52.2265 27.14C52.1785 27.848 52.2865 28.472 52.5505 29.012C52.8265 29.54 53.2105 29.954 53.7025 30.254C54.2065 30.542 54.7525 30.686 55.3405 30.686C55.9885 30.686 56.5345 30.536 56.9785 30.236C57.4225 29.936 57.7825 29.552 58.0585 29.084L59.4625 29.804C59.2705 30.248 58.9705 30.656 58.5625 31.028C58.1665 31.388 57.6925 31.676 57.1405 31.892C56.6005 32.108 55.9945 32.216 55.3225 32.216ZM61.9151 32V22.298H63.5531V24.188L63.2831 24.026C63.5231 23.414 63.9071 22.94 64.4351 22.604C64.9751 22.256 65.6051 22.082 66.3251 22.082C67.0211 22.082 67.6391 22.238 68.1791 22.55C68.7311 22.862 69.1631 23.294 69.4751 23.846C69.7991 24.398 69.9611 25.022 69.9611 25.718V32H68.2691V26.258C68.2691 25.718 68.1731 25.262 67.9811 24.89C67.7891 24.518 67.5131 24.23 67.1531 24.026C66.8051 23.81 66.4031 23.702 65.9471 23.702C65.4911 23.702 65.0831 23.81 64.7231 24.026C64.3751 24.23 64.0991 24.524 63.8951 24.908C63.6911 25.28 63.5891 25.73 63.5891 26.258V32H61.9151ZM76.9825 35.96C76.2985 35.96 75.6625 35.852 75.0745 35.636C74.4985 35.42 74.0005 35.12 73.5805 34.736C73.1725 34.364 72.8605 33.926 72.6445 33.422L74.2105 32.702C74.3785 33.158 74.6965 33.542 75.1645 33.854C75.6445 34.178 76.2445 34.34 76.9645 34.34C77.5165 34.34 78.0145 34.232 78.4585 34.016C78.9145 33.812 79.2745 33.5 79.5385 33.08C79.8025 32.672 79.9345 32.174 79.9345 31.586V29.408L80.2405 29.732C79.9045 30.392 79.4185 30.896 78.7825 31.244C78.1585 31.592 77.4685 31.766 76.7125 31.766C75.8005 31.766 74.9845 31.556 74.2645 31.136C73.5445 30.704 72.9805 30.122 72.5725 29.39C72.1645 28.646 71.9605 27.824 71.9605 26.924C71.9605 26.012 72.1645 25.19 72.5725 24.458C72.9805 23.726 73.5385 23.15 74.2465 22.73C74.9665 22.298 75.7825 22.082 76.6945 22.082C77.4505 22.082 78.1345 22.256 78.7465 22.604C79.3705 22.94 79.8685 23.408 80.2405 24.008L79.9885 24.458V22.298H81.6265V31.586C81.6265 32.426 81.4285 33.176 81.0325 33.836C80.6365 34.496 80.0845 35.012 79.3765 35.384C78.6805 35.768 77.8825 35.96 76.9825 35.96ZM76.8565 30.146C77.4325 30.146 77.9485 30.002 78.4045 29.714C78.8725 29.426 79.2445 29.042 79.5205 28.562C79.7965 28.07 79.9345 27.524 79.9345 26.924C79.9345 26.336 79.7965 25.796 79.5205 25.304C79.2445 24.812 78.8725 24.422 78.4045 24.134C77.9485 23.846 77.4325 23.702 76.8565 23.702C76.2685 23.702 75.7345 23.846 75.2545 24.134C74.7745 24.422 74.3965 24.812 74.1205 25.304C73.8565 25.784 73.7245 26.324 73.7245 26.924C73.7245 27.524 73.8565 28.07 74.1205 28.562C74.3965 29.042 74.7685 29.426 75.2365 29.714C75.7165 30.002 76.2565 30.146 76.8565 30.146ZM84.2218 32V18.374H85.8958V27.716L85.2118 27.554L90.3598 22.298H92.5018L88.7758 26.204L92.7538 32H90.7738L87.1378 26.744L88.1818 26.69L85.3558 29.642L85.8958 28.418V32H84.2218ZM97.1029 32.216C96.4669 32.216 95.9029 32.102 95.4109 31.874C94.9309 31.634 94.5529 31.31 94.2769 30.902C94.0009 30.482 93.8629 30.002 93.8629 29.462C93.8629 28.946 93.9709 28.484 94.1869 28.076C94.4149 27.656 94.7629 27.302 95.2309 27.014C95.7109 26.726 96.3109 26.522 97.0309 26.402L100.631 25.808V27.212L97.4089 27.752C96.7849 27.86 96.3289 28.058 96.0409 28.346C95.7649 28.634 95.6269 28.988 95.6269 29.408C95.6269 29.804 95.7829 30.134 96.0949 30.398C96.4189 30.662 96.8209 30.794 97.3009 30.794C97.9129 30.794 98.4409 30.668 98.8849 30.416C99.3409 30.152 99.6949 29.798 99.9469 29.354C100.211 28.91 100.343 28.418 100.343 27.878V25.412C100.343 24.884 100.145 24.458 99.7489 24.134C99.3649 23.798 98.8549 23.63 98.2189 23.63C97.6669 23.63 97.1749 23.774 96.7429 24.062C96.3229 24.338 96.0109 24.71 95.8069 25.178L94.3489 24.422C94.5289 23.978 94.8169 23.582 95.2129 23.234C95.6089 22.874 96.0709 22.592 96.5989 22.388C97.1269 22.184 97.6789 22.082 98.2549 22.082C98.9989 22.082 99.6529 22.226 100.217 22.514C100.781 22.79 101.219 23.18 101.531 23.684C101.855 24.176 102.017 24.752 102.017 25.412V32H100.379V30.164L100.685 30.272C100.481 30.656 100.205 30.992 99.8569 31.28C99.5089 31.568 99.1009 31.796 98.6329 31.964C98.1649 32.132 97.6549 32.216 97.1029 32.216ZM104.612 35.6V22.298H106.25V24.386L106.034 23.972C106.394 23.396 106.886 22.94 107.51 22.604C108.134 22.256 108.848 22.082 109.652 22.082C110.564 22.082 111.38 22.304 112.1 22.748C112.832 23.192 113.408 23.798 113.828 24.566C114.248 25.322 114.458 26.186 114.458 27.158C114.458 28.106 114.248 28.964 113.828 29.732C113.408 30.5 112.832 31.106 112.1 31.55C111.38 31.994 110.558 32.216 109.634 32.216C108.854 32.216 108.14 32.042 107.492 31.694C106.856 31.346 106.364 30.854 106.016 30.218L106.286 29.93V35.6H104.612ZM109.508 30.596C110.12 30.596 110.666 30.446 111.146 30.146C111.626 29.846 111.998 29.438 112.262 28.922C112.538 28.394 112.676 27.806 112.676 27.158C112.676 26.486 112.538 25.898 112.262 25.394C111.998 24.878 111.626 24.47 111.146 24.17C110.666 23.858 110.12 23.702 109.508 23.702C108.896 23.702 108.344 23.852 107.852 24.152C107.372 24.452 106.988 24.866 106.7 25.394C106.424 25.91 106.286 26.498 106.286 27.158C106.286 27.806 106.424 28.394 106.7 28.922C106.988 29.438 107.372 29.846 107.852 30.146C108.344 30.446 108.896 30.596 109.508 30.596ZM116.653 32V22.298H118.291V24.188L118.021 24.026C118.261 23.414 118.645 22.94 119.173 22.604C119.713 22.256 120.343 22.082 121.063 22.082C121.759 22.082 122.377 22.238 122.917 22.55C123.469 22.862 123.901 23.294 124.213 23.846C124.537 24.398 124.699 25.022 124.699 25.718V32H123.007V26.258C123.007 25.718 122.911 25.262 122.719 24.89C122.527 24.518 122.251 24.23 121.891 24.026C121.543 23.81 121.141 23.702 120.685 23.702C120.229 23.702 119.821 23.81 119.461 24.026C119.113 24.23 118.837 24.524 118.633 24.908C118.429 25.28 118.327 25.73 118.327 26.258V32H116.653ZM127.441 35.96C127.225 35.96 127.009 35.942 126.793 35.906C126.577 35.882 126.373 35.828 126.181 35.744V34.25C126.313 34.262 126.475 34.286 126.667 34.322C126.871 34.358 127.069 34.376 127.261 34.376C127.825 34.376 128.251 34.25 128.539 33.998C128.839 33.746 129.121 33.32 129.385 32.72L129.997 31.262L129.961 32.72L125.821 22.298H127.639L130.861 30.578H130.321L133.525 22.298H135.379L131.005 33.152C130.801 33.668 130.537 34.142 130.213 34.574C129.901 35.006 129.517 35.342 129.061 35.582C128.605 35.834 128.065 35.96 127.441 35.96ZM139.361 32.216C138.725 32.216 138.161 32.102 137.669 31.874C137.189 31.634 136.811 31.31 136.535 30.902C136.259 30.482 136.121 30.002 136.121 29.462C136.121 28.946 136.229 28.484 136.445 28.076C136.673 27.656 137.021 27.302 137.489 27.014C137.969 26.726 138.569 26.522 139.289 26.402L142.889 25.808V27.212L139.667 27.752C139.043 27.86 138.587 28.058 138.299 28.346C138.023 28.634 137.885 28.988 137.885 29.408C137.885 29.804 138.041 30.134 138.353 30.398C138.677 30.662 139.079 30.794 139.559 30.794C140.171 30.794 140.699 30.668 141.143 30.416C141.599 30.152 141.953 29.798 142.205 29.354C142.469 28.91 142.601 28.418 142.601 27.878V25.412C142.601 24.884 142.403 24.458 142.007 24.134C141.623 23.798 141.113 23.63 140.477 23.63C139.925 23.63 139.433 23.774 139.001 24.062C138.581 24.338 138.269 24.71 138.065 25.178L136.607 24.422C136.787 23.978 137.075 23.582 137.471 23.234C137.867 22.874 138.329 22.592 138.857 22.388C139.385 22.184 139.937 22.082 140.513 22.082C141.257 22.082 141.911 22.226 142.475 22.514C143.039 22.79 143.477 23.18 143.789 23.684C144.113 24.176 144.275 24.752 144.275 25.412V32H142.637V30.164L142.943 30.272C142.739 30.656 142.463 30.992 142.115 31.28C141.767 31.568 141.359 31.796 140.891 31.964C140.423 32.132 139.913 32.216 139.361 32.216Z" fill="#2D68F8"/>
<path d="M158.586 26L173.172 26L167.879 31.293L169.293 32.707L177 25L169.293 17.293L167.879 18.707L173.172 24H158.586V26Z" fill="#2D68F8"/>
</svg>

